<?xml version="1.0" standalone="no"?>
<!DOCTYPE svg PUBLIC "-//W3C//DTD SVG 20010904//EN"
 "http://www.w3.org/TR/2001/REC-SVG-20010904/DTD/svg10.dtd">
<svg version="1.0" xmlns="http://www.w3.org/2000/svg"
 width="1084.000000pt" height="1084.000000pt" viewBox="0 0 1084.000000 1084.000000"
 preserveAspectRatio="xMidYMid meet">
<metadata>
Created by potrace 1.11, written by Peter Selinger 2001-2013
</metadata>
<g transform="translate(0.000000,1084.000000) scale(0.100000,-0.100000)"
fill="#000000" stroke="none">
<path d="M4543 7313 c-9 -21 -35 -87 -58 -148 l-41 -110 -481 -5 -480 -5 -154
-135 c-84 -74 -173 -153 -198 -176 -134 -120 -500 -413 -659 -528 l-53 -39 15
34 c8 19 55 128 105 243 50 114 116 265 147 335 59 131 114 261 114 267 0 2
-302 3 -671 2 -585 -3 -673 -5 -680 -18 -8 -14 -66 -149 -374 -875 -167 -393
-307 -722 -415 -975 -72 -166 -140 -327 -177 -417 -4 -10 133 -13 665 -13 629
0 670 1 675 18 7 22 326 754 331 759 1 1 38 -46 81 -105 119 -162 265 -350
403 -519 l124 -153 1712 0 1711 1 345 320 c417 386 480 443 480 434 0 -4 -25
-168 -55 -365 -30 -197 -55 -365 -55 -374 0 -15 55 -16 584 -16 l584 0 157
138 c87 75 285 248 439 383 155 135 282 240 284 234 2 -10 -82 -599 -103 -722
l-6 -33 629 0 629 0 41 193 c23 105 67 309 97 452 31 143 88 406 126 585 38
179 105 489 149 690 44 201 80 368 80 373 0 4 -280 7 -622 7 l-623 0 -125
-109 c-336 -292 -845 -729 -847 -727 -2 1 13 74 31 162 76 356 136 650 136
662 0 9 -55 12 -235 12 -129 0 -235 -3 -235 -6 0 -4 14 -22 31 -42 41 -46 85
-141 100 -211 16 -77 6 -248 -21 -339 -11 -40 -36 -104 -55 -141 -111 -222
-435 -499 -678 -581 -224 -75 -470 -100 -1067 -107 l-465 -5 -288 -286 -288
-287 36 100 c47 129 159 428 194 514 l26 66 735 6 c694 5 741 7 850 27 133 24
197 45 298 96 202 102 410 273 512 421 46 67 107 202 125 276 39 169 -2 319
-124 452 -132 143 -316 232 -591 286 -282 55 -444 61 -1748 61 l-1093 0 -16
-37z m-145 -375 c-22 -57 -71 -184 -110 -283 -111 -287 -267 -692 -359 -927
-46 -120 -86 -218 -89 -218 -10 1 -470 624 -470 638 0 4 69 65 153 134 83 70
204 171 268 225 344 291 636 533 644 533 2 0 -15 -46 -37 -102z m2367 -223
c150 -75 94 -285 -94 -356 -95 -35 -144 -39 -516 -39 l-362 0 23 73 c12 39 42
134 65 210 l43 138 400 -3 c378 -3 403 -4 441 -23z"/>
<path d="M4840 4650 c-192 -24 -300 -93 -336 -215 -18 -64 -13 -113 16 -160
34 -56 82 -73 290 -104 105 -17 198 -35 206 -42 22 -18 17 -47 -12 -65 -18
-13 -46 -17 -102 -17 -66 1 -78 4 -94 23 -10 12 -15 26 -12 31 3 5 -72 9 -175
9 l-181 0 0 -46 c0 -121 87 -181 298 -205 174 -20 375 3 487 56 159 75 217
274 107 367 -44 37 -102 53 -297 83 -222 35 -215 33 -215 61 0 33 32 47 110
47 73 1 107 -13 120 -49 l10 -24 164 0 c106 0 167 4 171 11 4 6 4 30 0 55 -12
81 -90 143 -211 169 -88 18 -260 26 -344 15z"/>
<path d="M7130 4650 c-247 -31 -392 -161 -431 -385 -37 -216 42 -346 241 -396
81 -20 337 -17 419 5 190 51 296 162 336 351 46 218 -30 360 -218 409 -72 19
-259 28 -347 16z m202 -218 c43 -25 61 -74 55 -148 -12 -158 -105 -245 -245
-231 -94 10 -132 52 -132 148 0 170 95 268 244 253 28 -3 63 -13 78 -22z"/>
<path d="M403 4613 c-3 -10 -19 -52 -35 -93 -15 -41 -28 -78 -28 -82 0 -5 56
-8 125 -8 69 0 125 -2 125 -4 0 -5 -141 -395 -173 -478 l-26 -68 143 0 c128 0
145 2 151 18 22 55 184 491 190 510 6 21 10 22 135 22 l128 0 36 93 c20 51 36
96 36 100 0 4 -180 7 -400 7 -372 0 -401 -1 -407 -17z"/>
<path d="M1296 4483 c-69 -211 -186 -587 -186 -596 0 -4 66 -6 147 -5 l147 3
36 113 35 112 114 -2 c141 -4 142 -5 117 -115 -10 -43 -20 -86 -22 -95 -5 -17
7 -18 158 -18 l163 0 -3 43 c-2 23 8 87 22 145 26 103 26 141 0 163 -11 9 -6
17 30 40 45 30 87 83 105 132 16 41 13 123 -4 157 -33 63 -42 65 -445 68
l-366 3 -48 -148z m528 -68 c25 -26 -3 -89 -47 -105 -33 -11 -237 -14 -237 -3
0 4 7 33 16 65 l17 58 118 0 c92 0 121 -3 133 -15z"/>
<path d="M2536 4608 c-7 -13 -51 -88 -96 -168 -218 -380 -303 -526 -311 -534
-21 -23 0 -26 148 -24 l158 3 20 37 20 38 147 0 148 0 6 -40 7 -40 158 0 c88
0 159 1 159 3 0 5 -159 623 -176 685 l-17 62 -178 0 c-174 0 -179 -1 -193 -22z
m173 -323 c6 -38 13 -85 17 -102 l7 -33 -77 0 c-42 0 -76 3 -76 6 0 4 23 56
52 116 32 68 54 104 59 96 4 -7 12 -44 18 -83z"/>
<path d="M3386 4618 c-3 -7 -27 -168 -56 -358 -28 -190 -54 -353 -56 -362 -5
-17 6 -18 138 -18 l144 0 28 178 c15 97 30 187 33 200 6 24 21 0 172 -265 l64
-113 162 0 162 0 17 108 c9 59 36 225 60 370 23 144 40 264 38 267 -3 3 -67 5
-143 5 l-137 0 -10 -62 c-6 -35 -21 -127 -33 -206 l-22 -143 -57 108 c-32 59
-83 151 -113 203 l-55 95 -166 3 c-128 2 -167 0 -170 -10z"/>
<path d="M5636 4278 c-32 -194 -60 -363 -63 -375 l-5 -23 150 0 150 0 11 63
c5 34 13 85 17 114 l6 51 207 4 c190 3 210 5 258 27 108 48 165 149 166 291 1
104 -38 156 -136 185 -40 12 -116 15 -377 15 l-327 0 -57 -352z m572 150 c21
-21 14 -77 -13 -103 -23 -24 -30 -25 -141 -25 l-116 0 7 57 c4 31 9 62 12 70
7 18 233 19 251 1z"/>
<path d="M7990 4618 c0 -7 -22 -153 -49 -323 -27 -171 -52 -334 -56 -363 l-7
-53 148 3 148 3 8 40 c4 22 12 73 18 113 l12 72 107 0 c140 0 147 -5 142 -97
-2 -37 -4 -81 -5 -98 l-1 -30 162 -3 163 -2 -11 27 c-7 18 -8 71 -4 149 6 102
5 126 -9 152 -9 18 -21 32 -27 32 -6 0 9 15 32 33 53 41 82 95 87 166 5 73
-26 135 -83 165 -38 20 -58 21 -407 24 -298 3 -368 1 -368 -10z m524 -207 c15
-17 16 -25 7 -54 -16 -48 -44 -57 -172 -57 l-111 0 6 28 c2 15 7 44 11 65 l6
37 118 0 c104 0 120 -2 135 -19z"/>
<path d="M9040 4623 c0 -11 -19 -132 -26 -165 l-6 -28 135 0 134 0 -9 -47 c-4
-27 -22 -136 -38 -243 -16 -107 -32 -210 -35 -227 l-6 -33 149 0 150 0 10 58
c6 31 25 155 43 275 l32 217 133 0 133 0 5 33 c3 17 10 59 16 91 5 33 10 63
10 68 0 4 -187 8 -415 8 -228 0 -415 -3 -415 -7z"/>
</g>
</svg>
